<svg width="30" height="30" viewBox="0 0 30 30" fill="none" xmlns="http://www.w3.org/2000/svg">
<path d="M8.33333 0C3.73167 0 0 3.71391 0 8.29369V21.5636C0 26.1434 3.73167 29.8573 8.33333 29.8573H21.6667C26.2683 29.8573 30 26.1434 30 21.5636V8.29369C30 3.71391 26.2683 0 21.6667 0H8.33333ZM25 3.31747C25.92 3.31747 26.6667 4.06059 26.6667 4.97621C26.6667 5.89183 25.92 6.63495 25 6.63495C24.08 6.63495 23.3333 5.89183 23.3333 4.97621C23.3333 4.06059 24.08 3.31747 25 3.31747ZM15 6.63495C19.6017 6.63495 23.3333 10.3489 23.3333 14.9286C23.3333 19.5084 19.6017 23.2223 15 23.2223C10.3983 23.2223 6.66667 19.5084 6.66667 14.9286C6.66667 10.3489 10.3983 6.63495 15 6.63495ZM15 9.95242C13.6739 9.95242 12.4021 10.4767 11.4645 11.4099C10.5268 12.3431 10 13.6089 10 14.9286C10 16.2484 10.5268 17.5141 11.4645 18.4473C12.4021 19.3806 13.6739 19.9048 15 19.9048C16.3261 19.9048 17.5979 19.3806 18.5355 18.4473C19.4732 17.5141 20 16.2484 20 14.9286C20 13.6089 19.4732 12.3431 18.5355 11.4099C17.5979 10.4767 16.3261 9.95242 15 9.95242Z" fill="white"/>
</svg>
