<svg width="30" height="31" viewBox="0 0 30 31" fill="none" xmlns="http://www.w3.org/2000/svg">
<path d="M30 4.52926C28.8958 5.12983 27.7097 5.53397 26.4648 5.71626C27.7362 4.78362 28.7112 3.30694 29.1704 1.54622C27.982 2.40962 26.6644 3.03704 25.2613 3.37618C24.1387 1.9108 22.5395 0.995117 20.7696 0.995117C17.3705 0.995117 14.6152 4.371 14.6152 8.53256C14.6152 9.12323 14.6706 9.69977 14.7744 10.2495C9.65963 9.93575 5.12519 6.93435 2.08838 2.37288C1.55994 3.4864 1.25649 4.78079 1.25649 6.16421C1.25649 8.77843 2.34222 11.086 3.99331 12.4369C2.98489 12.3974 2.03531 12.0582 1.20572 11.4944C1.20572 11.5269 1.20572 11.5566 1.20572 11.5891C1.20572 15.2419 3.32641 18.2885 6.14284 18.9795C5.62709 19.1519 5.0825 19.2438 4.5206 19.2438C4.12484 19.2438 3.73832 19.1957 3.36333 19.1096C4.14676 22.1039 6.41975 24.2843 9.11273 24.3451C7.00704 26.3672 4.35329 27.5726 1.46879 27.5726C0.972655 27.5726 0.482289 27.5372 0 27.4666C2.72413 29.6046 5.95823 30.8524 9.43464 30.8524C20.7557 30.8524 26.9447 19.3667 26.9447 9.40584C26.9447 9.07942 26.939 8.75441 26.9274 8.43081C28.1308 7.36675 29.175 6.03986 30 4.52926Z" fill="white"/>
</svg>
